<?xml version="1.0" standalone="no"?>
<!DOCTYPE svg PUBLIC "-//W3C//DTD SVG 20010904//EN"
 "http://www.w3.org/TR/2001/REC-SVG-20010904/DTD/svg10.dtd">
<svg version="1.0" xmlns="http://www.w3.org/2000/svg"
 width="360.000000pt" height="360.000000pt" viewBox="0 0 360.000000 360.000000"
 preserveAspectRatio="xMidYMid meet">

<g transform="translate(0.000000,360.000000) scale(0.100000,-0.100000)"
fill="#000000" stroke="none">
<path d="M2846 3074 c-3 -9 -6 -37 -6 -62 0 -33 -7 -58 -24 -82 -24 -36 -57
-51 -201 -96 -33 -10 -76 -33 -95 -49 -19 -17 -54 -39 -77 -49 -51 -23 -83
-57 -109 -116 -10 -25 -34 -65 -52 -90 -19 -24 -38 -55 -43 -68 -22 -57 -61
-131 -71 -134 -6 -2 -13 -30 -16 -61 -4 -57 -4 -58 38 -98 23 -22 39 -43 36
-46 -3 -4 8 -15 24 -25 17 -10 35 -29 40 -42 5 -13 14 -27 19 -31 6 -3 11 -20
11 -37 0 -36 57 -134 113 -195 34 -37 131 -103 151 -103 4 0 -6 11 -21 24 -37
32 -23 44 26 21 22 -9 45 -15 51 -13 11 3 -5 13 -60 36 -20 8 -13 9 31 5 93
-9 235 43 379 139 25 17 95 82 155 144 122 125 159 145 232 125 39 -11 59 -8
24 4 -29 9 -44 40 -31 64 10 19 94 56 152 68 34 7 35 16 3 79 -14 27 -25 60
-25 74 0 41 -21 103 -44 131 -11 15 -31 40 -43 56 -55 72 -85 94 -122 91 l-36
-3 0 49 c-1 43 -5 51 -38 80 -21 17 -61 52 -89 79 -29 26 -62 47 -73 47 -21 0
-72 47 -93 85 -11 19 -11 19 -12 -5 -1 -48 -14 -52 -50 -15 -38 39 -45 42 -54
19z"/>
<path d="M2100 2613 c-6 -37 -14 -76 -17 -85 -2 -10 0 -18 5 -18 9 0 37 159
29 166 -3 3 -10 -26 -17 -63z"/>
<path d="M2090 2358 c0 -7 5 -20 10 -28 8 -12 10 -9 10 13 0 15 -4 27 -10 27
-5 0 -10 -6 -10 -12z"/>
<path d="M2215 2078 c4 -13 13 -33 21 -45 20 -31 17 -39 -5 -19 -19 17 -20 17
-35 -12 -9 -17 -46 -61 -83 -99 -38 -38 -75 -78 -83 -88 -15 -19 -14 -19 12
-2 32 20 42 22 31 5 -10 -17 -11 -58 -1 -52 4 3 8 2 8 -3 0 -4 -21 -27 -47
-49 -27 -23 -61 -54 -78 -68 -45 -40 105 58 215 140 52 39 112 80 133 91 34
17 37 21 23 32 -10 8 -16 29 -16 52 0 20 -7 44 -15 53 -8 8 -15 19 -15 24 0
13 -47 62 -60 62 -7 0 -9 -9 -5 -22z"/>
<path d="M2615 1681 c11 -5 40 -11 65 -15 l45 -6 -40 15 c-43 16 -109 21 -70
6z"/>
<path d="M1809 1638 c-30 -23 -56 -45 -59 -48 -3 -3 -23 -19 -45 -35 -22 -17
-121 -95 -220 -175 -329 -264 -349 -280 -357 -280 -5 0 -17 14 -27 31 l-19 31
-21 -21 c-20 -20 -25 -33 -22 -58 1 -8 -5 -10 -16 -6 -15 5 -16 3 -6 -8 22
-23 14 -45 -25 -73 -47 -32 -53 -32 -81 -2 -13 14 -29 22 -37 19 -8 -3 -14 1
-14 10 0 9 -19 29 -42 46 -42 29 -173 151 -163 151 3 0 22 -7 42 -15 53 -22
55 -19 16 25 -20 22 -42 40 -49 40 -7 0 -16 9 -19 20 -4 11 -11 17 -17 14 -7
-4 -8 -2 -4 4 7 11 36 6 36 -7 0 -3 10 -12 23 -20 17 -11 16 -7 -7 18 -38 40
-55 39 -89 -5 l-29 -35 39 -34 c21 -19 41 -34 46 -35 4 0 7 -4 7 -8 0 -5 32
-41 70 -81 46 -48 70 -82 70 -97 0 -19 30 -50 78 -80 11 -7 -59 -80 -173 -182
-71 -64 -141 -127 -155 -140 -14 -13 -40 -30 -58 -39 -17 -8 -32 -22 -32 -30
0 -22 -75 -142 -142 -226 -86 -110 -221 -245 -261 -262 -54 -22 -40 -45 28
-45 50 0 55 2 88 43 51 62 236 247 246 247 5 0 16 6 23 13 7 7 45 23 83 35 55
17 111 24 260 32 105 5 201 7 215 4 20 -5 22 -3 10 5 -8 6 -23 11 -32 11 -22
0 -24 28 -2 37 10 4 26 -5 45 -25 16 -17 46 -36 67 -42 31 -10 45 -8 90 9 29
12 59 21 67 21 25 0 17 -19 -10 -26 -27 -7 -32 -23 -13 -42 6 -6 8 -15 4 -19
-4 -4 -11 -1 -16 7 -8 13 -11 13 -22 1 -10 -11 -10 -14 0 -18 15 -6 15 -34 1
-83 -13 -44 -3 -163 12 -139 7 11 13 9 34 -14 18 -19 21 -27 11 -27 -8 0 -16
5 -18 12 -2 6 -9 9 -15 7 -7 -3 -8 -12 -2 -26 l8 -23 371 0 372 0 -63 70 c-34
38 -83 87 -108 107 -103 84 -164 141 -206 194 -53 68 -72 73 -168 48 -40 -10
-82 -19 -94 -19 -21 0 -21 1 9 58 23 46 31 76 35 140 5 72 8 82 25 82 10 0 21
-7 24 -15 4 -8 10 -15 15 -15 16 0 10 22 -16 56 -31 40 -95 172 -95 195 0 13
11 17 53 19 110 3 129 2 146 -14 13 -12 41 -17 97 -19 69 -1 84 1 115 23 37
24 109 127 109 154 0 18 -62 70 -110 93 -22 10 -78 19 -150 25 -137 9 -180 16
-180 28 0 16 211 181 399 311 113 78 145 112 42 44 -29 -19 -55 -35 -58 -35
-2 0 -11 -7 -19 -15 -21 -20 -35 -19 -28 3 5 14 4 14 -4 2 -6 -8 -9 -17 -7
-21 6 -9 -44 -34 -51 -26 -7 7 32 47 144 150 35 31 61 57 59 57 -2 0 -29 -19
-58 -42z m-153 -185 c-8 -8 -57 -12 -52 -5 2 4 16 8 31 8 14 1 24 0 21 -3z
m-392 -375 c-16 -23 -36 -58 -45 -77 l-15 -35 -22 22 c-12 12 -22 28 -22 36 0
15 119 110 128 101 3 -2 -8 -24 -24 -47z m-133 -108 c10 -6 19 -14 19 -19 0
-14 -77 -58 -113 -65 -55 -10 -57 11 -6 55 46 40 67 46 100 29z m124 -20 c-3
-5 -13 -10 -21 -10 -8 0 -14 5 -14 10 0 6 9 10 21 10 11 0 17 -4 14 -10z
m-315 -71 c-14 -25 -30 -16 -30 17 0 22 2 23 20 14 16 -9 18 -15 10 -31z m120
-38 c0 -23 -12 -40 -57 -79 l-57 -50 3 -97 c1 -53 7 -109 11 -126 8 -25 5 -35
-18 -60 -23 -26 -38 -32 -97 -39 -39 -5 -108 -10 -155 -10 -47 0 -110 -7 -140
-15 -76 -20 -90 -19 -90 7 0 35 53 107 147 200 104 102 283 258 298 258 5 1
28 9 50 20 22 11 55 19 73 20 29 0 32 -3 32 -29z m283 -55 c20 -22 22 -30 5
-20 -23 13 -58 47 -58 57 0 10 25 -7 53 -37z m-209 -382 c20 -3 36 -10 36 -15
0 -9 -96 -6 -106 4 -10 10 7 29 21 23 8 -3 30 -8 49 -12z m166 -139 c0 -11
-19 -4 -41 15 l-24 21 33 -16 c17 -8 32 -18 32 -20z m-2 -232 c2 -8 -5 -13
-17 -13 -12 0 -21 6 -21 16 0 18 31 15 38 -3z"/>
<path d="M1020 366 c0 -2 7 -7 16 -10 8 -3 12 -2 9 4 -6 10 -25 14 -25 6z"/>
</g>
</svg>
